<?xml version="1.0" encoding="UTF-8" standalone="no"?>
<svg width="24px" height="24px" viewBox="0 0 24 24" version="1.1" xmlns="http://www.w3.org/2000/svg" xmlns:xlink="http://www.w3.org/1999/xlink">
    <!-- Generator: Sketch 39.1 (31720) - http://www.bohemiancoding.com/sketch -->
    <title>sidebar_components</title>
    <desc>Created with Sketch.</desc>
    <defs></defs>
    <g id="Symbols" stroke="none" stroke-width="1" fill="none" fill-rule="evenodd">
        <g id="sidebar_components">
            <g id="Group-10">
                <path d="M14.2485,12.74925 C13.8099667,12.74925 13.4059333,12.98325 13.1966333,13.359 L10.7203,17.81325 C10.5263333,18.162 10.5263333,18.582 10.7203,18.9315 L13.1966333,23.385 C13.4059333,23.7615 13.8099667,23.99625 14.2485,23.99625 L19.0785,23.99625 C19.5170333,23.99625 19.9218333,23.7615 20.1303667,23.385 L22.6074667,18.9315 C22.8014333,18.58125 22.8014333,18.16125 22.6074667,17.81175 L20.1303667,13.35825 C19.9218333,12.98175 19.5170333,12.74775 19.0785,12.74775 L14.2485,12.74925 L14.2485,12.74925 L14.2485,12.74925 Z M18.8492667,21.27525 C18.6767667,21.5685 18.3570667,21.74925 18.0120667,21.74925 L15.3149333,21.74925 C14.9707,21.74925 14.651,21.5685 14.4777333,21.276 L13.0456,18.84675 C12.8723333,18.5535 12.8723333,18.19425 13.0456,17.901 L14.4777333,15.47175 C14.651,15.17925 14.9707,14.99925 15.3149333,14.99925 L18.0120667,14.99925 C18.3570667,14.99925 18.6767667,15.17925 18.8492667,15.4725 L20.2814,17.90175 C20.4539,18.19425 20.4539,18.5535 20.2814,18.846 L18.8492667,21.27525 L18.8492667,21.27525 Z" id="Shape" fill="#485369"></path>
                <path d="M9.80183333,6.6105 C9.59253333,6.234 9.1885,5.99925 8.74996667,5.99925 L3.91843333,5.99925 C3.4799,5.99925 3.07586667,6.23325 2.86656667,6.6105 L0.390233333,11.06475 C0.196266667,11.4135 0.196266667,11.83425 0.390233333,12.183 L2.86656667,16.63725 C3.07586667,17.01375 3.4799,17.24775 3.91843333,17.24775 L8.74996667,17.24775 C9.1885,17.24775 9.59253333,17.01225 9.80183333,16.63725 L12.2781667,12.183 C12.4721333,11.83425 12.4721333,11.4135 12.2781667,11.06475 L9.80183333,6.6105 L9.80183333,6.6105 Z" id="Shape" fill="#485369"></path>
                <path d="M19.0785,11.24925 C19.5170333,11.24925 19.9218333,11.0145 20.1303667,10.638 L22.6074667,6.18375 C22.8014333,5.83425 22.8014333,5.4135 22.6074667,5.064 L20.1303667,0.6105 C19.9218333,0.234 19.5178,0 19.0785,0 L14.2485,0 C13.8099667,0 13.4059333,0.234 13.1966333,0.6105 L10.7203,5.06475 C10.5263333,5.4135 10.5263333,5.83425 10.7203,6.183 L13.1966333,10.638 C13.4059333,11.0145 13.8099667,11.24925 14.2485,11.24925 L19.0785,11.24925 L19.0785,11.24925 Z" id="Shape" fill="#9EB2BE"></path>
            </g>
        </g>
    </g>
</svg>