<?xml version="1.0" encoding="UTF-8" standalone="no"?>
<svg width="24px" height="24px" viewBox="0 0 24 24" version="1.1" xmlns="http://www.w3.org/2000/svg" xmlns:xlink="http://www.w3.org/1999/xlink">
    <!-- Generator: Sketch 39.1 (31720) - http://www.bohemiancoding.com/sketch -->
    <title>sidebar_instances</title>
    <desc>Created with Sketch.</desc>
    <defs></defs>
    <g id="Symbols" stroke="none" stroke-width="1" fill="none" fill-rule="evenodd">
        <g id="sidebar_instances">
            <g id="Group-15" transform="translate(1.000000, 1.000000)">
                <path d="M20.4883747,0.0179650655 L9.04952505,0.0179650655 C8.82866231,0.0179650655 8.61915904,0.0671048035 8.43079303,0.154480349 C7.92383442,0.389659389 7.57106754,0.904017467 7.57106754,1.49969869 L7.57106754,2.24054148 L16.7917996,2.24054148 C18.4306318,2.24054148 19.7639085,3.57672926 19.7639085,5.21913974 L19.7639085,14.4176376 L19.7639085,14.4452576 L20.4884227,14.4452576 C21.2995468,14.4452576 21.9669281,13.7837205 21.9669281,12.9635721 L21.9669281,1.49969869 C21.9668802,0.682672489 21.3036688,0.0179650655 20.4883747,0.0179650655 L20.4883747,0.0179650655 Z" id="Shape" fill="#485369"></path>
                <path d="M16.7917996,3.73740611 L5.35294989,3.73740611 C4.5377037,3.73740611 3.87449237,4.40211354 3.87449237,5.21913974 L3.87449237,6.07276856 L12.9173551,6.07276856 C14.5561874,6.07276856 15.8894641,7.40895633 15.8894641,9.05136681 L15.8894641,18.1646507 L16.7918475,18.1646507 C17.6070937,18.1646507 18.2703529,17.4999432 18.2703529,16.6829651 L18.2703529,5.21913974 C18.270305,4.40211354 17.6070458,3.73740611 16.7917996,3.73740611 L16.7917996,3.73740611 Z" id="Shape" fill="#9EB2BE"></path>
                <path d="M12.9173551,7.56963319 L1.47850545,7.56963319 C0.663259259,7.56963319 0,8.23434061 0,9.05136681 L0,20.5152402 C0,21.3322183 0.663259259,21.9969258 1.47850545,21.9969258 L12.9173551,21.9969258 C13.7326013,21.9969258 14.3958606,21.3322183 14.3958606,20.5152402 L14.3958606,9.05136681 C14.3958126,8.23434061 13.7326013,7.56963319 12.9173551,7.56963319 L12.9173551,7.56963319 Z" id="Shape" fill="#485369"></path>
            </g>
        </g>
    </g>
</svg>