<?xml version="1.0" encoding="UTF-8" standalone="no"?>
<svg width="24px" height="24px" viewBox="0 0 24 24" version="1.1" xmlns="http://www.w3.org/2000/svg" xmlns:xlink="http://www.w3.org/1999/xlink">
    <!-- Generator: Sketch 39.1 (31720) - http://www.bohemiancoding.com/sketch -->
    <title>sidebar_namespaces</title>
    <desc>Created with Sketch.</desc>
    <defs></defs>
    <g id="Symbols" stroke="none" stroke-width="1" fill="none" fill-rule="evenodd">
        <g id="sidebar_namespaces">
            <g id="Group-3" transform="translate(0.000000, 1.000000)">
                <g id="Group-8" transform="translate(10.000000, 6.285714)" fill="#9EB2BE">
                    <ellipse id="Oval-5-Copy-2" cx="2" cy="7.74489796" rx="1.66666667" ry="1.68367347"></ellipse>
                    <ellipse id="Oval-5-Copy-3" cx="2" cy="1.68367347" rx="1.66666667" ry="1.68367347"></ellipse>
                </g>
                <path d="M1.41428571,4.2625 C1.67142857,6.05 1.92857143,6.4625 1.92857143,8.25 C1.92857143,9.35 0,10.3125 0,10.3125 L0,11.6875 C0,11.6875 1.92857143,12.65 1.92857143,13.75 C1.92857143,15.5375 1.67142857,15.95 1.41428571,17.7375 C1.02857143,20.625 2.44285714,22 3.72857143,22 L6.42857143,22 L6.42857143,19.25 C6.42857143,19.25 4.11428571,19.525 4.11428571,17.875 C4.11428571,16.6375 4.37142857,16.6375 4.62857143,13.8875 C4.75714286,12.65 3.98571429,11.6875 3.21428571,11 C3.98571429,10.3125 4.75714286,9.4875 4.62857143,8.25 C4.24285714,5.5 4.11428571,5.5 4.11428571,4.2625 C4.11428571,2.6125 6.42857143,2.75 6.42857143,2.75 L6.42857143,0 L3.72857143,0 C2.31428571,0 1.02857143,1.375 1.41428571,4.2625 L1.41428571,4.2625 Z" id="Shape" fill="#485369"></path>
                <path d="M22.5857143,4.2625 C22.3285714,6.05 22.0714286,6.4625 22.0714286,8.25 C22.0714286,9.35 24,10.3125 24,10.3125 L24,11.6875 C24,11.6875 22.0714286,12.65 22.0714286,13.75 C22.0714286,15.5375 22.3285714,15.95 22.5857143,17.7375 C22.9714286,20.625 21.5571429,22 20.2714286,22 L17.5714286,22 L17.5714286,19.25 C17.5714286,19.25 19.8857143,19.525 19.8857143,17.875 C19.8857143,16.6375 19.6285714,16.6375 19.3714286,13.8875 C19.2428571,12.65 20.0142857,11.6875 20.7857143,11 C20.0142857,10.3125 19.2428571,9.4875 19.3714286,8.25 C19.6285714,5.5 19.8857143,5.5 19.8857143,4.2625 C19.8857143,2.6125 17.5714286,2.75 17.5714286,2.75 L17.5714286,0 L20.2714286,0 C21.6857143,0 22.9714286,1.375 22.5857143,4.2625 L22.5857143,4.2625 Z" id="Shape" fill="#485369"></path>
            </g>
        </g>
    </g>
</svg>