<?xml version="1.0" encoding="UTF-8" standalone="no"?>
<svg width="24px" height="24px" viewBox="0 0 24 24" version="1.1" xmlns="http://www.w3.org/2000/svg" xmlns:xlink="http://www.w3.org/1999/xlink">
    <!-- Generator: Sketch 39.1 (31720) - http://www.bohemiancoding.com/sketch -->
    <title>sidebar_volumes</title>
    <desc>Created with Sketch.</desc>
    <defs></defs>
    <g id="Symbols" stroke="none" stroke-width="1" fill="none" fill-rule="evenodd">
        <g id="sidebar_volumes">
            <g id="Group-11" transform="translate(2.000000, 0.000000)">
                <path d="M10,24 C4.47835938,24 0,22.4631696 0,20.5714286 L0,17.1428571 C0,16.8448661 0.14484375,16.5619286 0.353177083,16.2857143 C1.46809896,17.7622768 5.34505208,18.8571429 10,18.8571429 C14.6549479,18.8571429 18.531901,17.7622768 19.6468229,16.2857143 C19.8551563,16.5619286 20,16.8448661 20,17.1428571 L20,20.5714286 C20,22.4631696 15.5208333,24 10,24 L10,24 Z M10,17.047619 C4.47835938,17.047619 0,15.5107887 0,13.6190476 L0,10.1904762 C0,10.0088423 0.06671875,9.83221726 0.15625,9.65727976 L0.15625,9.65727976 C0.20671875,9.54761905 0.2734375,9.43964583 0.353177083,9.33333333 C1.46809896,10.8090655 5.34505208,11.9047619 10,11.9047619 C14.6549479,11.9047619 18.531901,10.8090655 19.6468229,9.33333333 C19.7265625,9.43964583 19.7933073,9.54761905 19.84375,9.65727976 L19.84375,9.65727976 C19.9332813,9.83221726 20,10.0088423 20,10.1904762 L20,13.6190476 C20,15.5107887 15.5208333,17.047619 10,17.047619 L10,17.047619 Z M10,10.2857143 C4.47835938,10.2857143 0,8.74971429 0,6.85714286 L0,5.14285714 L0,3.42857143 C0,1.536 4.47835938,0 10,0 C15.5208333,0 20,1.536 20,3.42857143 L20,5.14285714 L20,6.85714286 C20,8.74971429 15.5208333,10.2857143 10,10.2857143 L10,10.2857143 Z M10,1.71428571 C6.31835938,1.71428571 3.33333333,2.48019643 3.33333333,3.42857143 C3.33333333,4.37694643 6.31835938,5.14285714 10,5.14285714 C13.6816406,5.14285714 16.6666667,4.37694643 16.6666667,3.42857143 C16.6666667,2.48019643 13.6816406,1.71428571 10,1.71428571 L10,1.71428571 Z" id="Shape" fill="#485369" transform="translate(10.000000, 12.000000) scale(-1, 1) translate(-10.000000, -12.000000) "></path>
                <path d="M10,17.047619 C4.47835938,17.047619 0,15.5107887 0,13.6190476 L0,10.1904762 C0,10.0088423 0.06671875,9.83221726 0.15625,9.65727976 L0.15625,9.65727976 C0.20671875,9.54761905 0.2734375,9.43964583 0.353177083,9.33333333 C1.46809896,10.8090655 5.34505208,11.9047619 10,11.9047619 C14.6549479,11.9047619 18.531901,10.8090655 19.6468229,9.33333333 C19.7265625,9.43964583 19.7933073,9.54761905 19.84375,9.65727976 L19.84375,9.65727976 C19.9332813,9.83221726 20,10.0088423 20,10.1904762 L20,13.6190476 C20,15.5107887 15.5208333,17.047619 10,17.047619 L10,17.047619 Z" id="Path-Copy" fill="#9EB2BE"></path>
            </g>
        </g>
    </g>
</svg>