<?xml version="1.0" encoding="UTF-8" standalone="no"?>
<svg width="24px" height="24px" viewBox="0 0 24 24" version="1.1" xmlns="http://www.w3.org/2000/svg" xmlns:xlink="http://www.w3.org/1999/xlink">
    <!-- Generator: Sketch 39.1 (31720) - http://www.bohemiancoding.com/sketch -->
    <title>sidebar_entrypoints</title>
    <desc>Created with Sketch.</desc>
    <defs></defs>
    <g id="Symbols" stroke="none" stroke-width="1" fill="none" fill-rule="evenodd">
        <g id="sidebar_entrypoints">
            <g id="Group-14" transform="translate(2.000000, 0.000000)">
                <path d="M18.8888889,21.2962963 L3.33333333,21.2962963 C2.66666667,21.2962963 2.22222222,20.9259259 2.22222222,20.3703704 L2.22222222,3.7037037 C2.22222222,3.14814815 2.66666667,2.77777778 3.33333333,2.77777778 L18.8888889,2.77777778 C19.5555556,2.77777778 20,3.14814815 20,3.7037037 L20,20.3703704 C20,20.9259259 19.5555556,21.2962963 18.8888889,21.2962963 L18.8888889,21.2962963 Z M4.44444444,19.4444444 L17.7777778,19.4444444 L17.7777778,4.62962963 L4.44444444,4.62962963 L4.44444444,19.4444444 L4.44444444,19.4444444 Z" id="Shape" fill="#9EB2BE"></path>
                <g id="1472595873_open">
                    <path d="M12.2222222,1.01851852 C12.2222222,0.37037037 11.4444444,-0.0925925926 10.7777778,0.0925925926 L0.888888889,2.77777778 C0.333333333,2.87037037 0,3.24074074 0,3.7037037 L0,20.3703704 C0,20.8333333 0.333333333,21.2037037 0.888888889,21.2962963 L10.7777778,24.0740741 C11.4444444,24.2592593 12.2222222,23.7962963 12.2222222,23.2407407 L12.2222222,1.01851852 L12.2222222,1.01851852 Z" id="Shape" fill="#485369"></path>
                    <path d="M10,12.962963 C10.3068249,12.962963 10.5555556,12.5484118 10.5555556,12.037037 C10.5555556,11.5256623 10.3068249,11.1111111 10,11.1111111 C9.69317514,11.1111111 9.44444444,11.5256623 9.44444444,12.037037 C9.44444444,12.5484118 9.69317514,12.962963 10,12.962963 Z" id="Oval" fill="#FFFFFF"></path>
                </g>
            </g>
        </g>
    </g>
</svg>