<?xml version="1.0" encoding="UTF-8" standalone="no"?>
<svg width="24px" height="24px" viewBox="0 0 24 24" version="1.1" xmlns="http://www.w3.org/2000/svg" xmlns:xlink="http://www.w3.org/1999/xlink">
    <!-- Generator: Sketch 39.1 (31720) - http://www.bohemiancoding.com/sketch -->
    <title>sidebar_nodes</title>
    <desc>Created with Sketch.</desc>
    <defs></defs>
    <g id="Symbols" stroke="none" stroke-width="1" fill="none" fill-rule="evenodd">
        <g id="sidebar_nodes">
            <path d="M0,8 L24,8 L24,12 L0,12 L0,8 Z M2,9 L3,9 L3,11 L2,11 L2,9 Z M4,9 L5,9 L5,11 L4,11 L4,9 Z M6,9 L7,9 L7,11 L6,11 L6,9 Z M15,10 L23,10 L23,11 L15,11 L15,10 Z" id="Combined-Shape" fill="#485369"></path>
            <path d="M0,13 L24,13 L24,17 L0,17 L0,13 Z M2,14 L3,14 L3,16 L2,16 L2,14 Z M4,14 L5,14 L5,16 L4,16 L4,14 Z M6,14 L7,14 L7,16 L6,16 L6,14 Z M15,15 L23,15 L23,16 L15,16 L15,15 Z" id="Combined-Shape-Copy" fill="#485369"></path>
            <path d="M0,18 L24,18 L24,22 L0,22 L0,18 Z M2,19 L3,19 L3,21 L2,21 L2,19 Z M4,19 L5,19 L5,21 L4,21 L4,19 Z M6,19 L7,19 L7,21 L6,21 L6,19 Z M15,20 L23,20 L23,21 L15,21 L15,20 Z" id="Combined-Shape-Copy-2" fill="#485369"></path>
            <polygon id="Path-4" fill="#9EB2BE" points="6.68457031 1.5 2 7.99731445 22.5660403 7.99731445 17.9128418 1.53515625"></polygon>
        </g>
    </g>
</svg>