<?xml version="1.0" encoding="UTF-8" standalone="no"?>
<svg width="24px" height="24px" viewBox="0 0 24 24" version="1.1" xmlns="http://www.w3.org/2000/svg" xmlns:xlink="http://www.w3.org/1999/xlink">
    <!-- Generator: Sketch 39.1 (31720) - http://www.bohemiancoding.com/sketch -->
    <title>sidebar_dockerkeys</title>
    <desc>Created with Sketch.</desc>
    <defs></defs>
    <g id="Symbols" stroke="none" stroke-width="1" fill="none" fill-rule="evenodd">
        <g id="sidebar_dockerkeys">
            <path d="M13.8955874,7 L9.56633824,11.3292492 L11.7309628,13.4938737 L11.7309628,13.4938737 L13.8955874,13.4938737 L13.8955874,15.6584983 L13.8955874,15.6584983 L16.060212,15.6584983 L16.060212,17.8231229 L16.8178306,18.5807415 C17.0342931,18.797204 17.2507555,18.9054352 17.5754492,18.9054352 L20.3894612,18.9054352 C21.0388485,18.9054352 21.4717734,18.4725103 21.4717734,17.8231229 L21.4717734,15.009111 C21.4717734,14.6844173 21.3635422,14.4679548 21.1470798,14.2514924 L13.8955874,7 L13.8955874,7 Z" id="Shape" fill="#9EB2BE"></path>
            <path d="M8.51905584,0 C5.20254175,0 2.56633824,2.63620351 2.56633824,5.9527176 C2.56633824,9.26923169 5.20254175,11.9054352 8.51905584,11.9054352 C11.8355699,11.9054352 14.4717734,9.26923169 14.4717734,5.9527176 C14.4717734,2.63620351 11.8355699,0 8.51905584,0 L8.51905584,0 Z M7.2434735,6.80310583 C6.05292998,6.80310583 5.11750293,5.86767878 5.11750293,4.67713526 C5.11750293,3.48659174 6.05292998,2.55116469 7.2434735,2.55116469 C8.43401702,2.55116469 9.36944407,3.48659174 9.36944407,4.67713526 C9.36944407,5.86767878 8.43401702,6.80310583 7.2434735,6.80310583 L7.2434735,6.80310583 Z" id="Shape" fill="#9EB2BE"></path>
            <path d="M6.83048543,11.6160968 L2.50123627,15.2524605 L4.66586085,17.0706423 L4.66586085,17.0706423 L6.83048543,17.0706423 L6.83048543,18.8888241 L6.83048543,18.8888241 L8.99511002,18.8888241 L8.99511002,20.7070059 L9.75272862,21.3433696 C9.96919108,21.5251877 10.1856535,21.6160968 10.5103472,21.6160968 L13.3243592,21.6160968 C13.9737466,21.6160968 14.4066715,21.2524605 14.4066715,20.7070059 L14.4066715,18.3433696 C14.4066715,18.0706423 14.2984402,17.8888241 14.0819778,17.7070059 L6.83048543,11.6160968 L6.83048543,11.6160968 Z" id="Shape" fill="#485369" transform="translate(8.453954, 16.616097) rotate(40.000000) translate(-8.453954, -16.616097) "></path>
            <path d="M6.9527176,1.43366176 C3.63620351,1.43366176 1,4.06986527 1,7.38637936 C1,10.7028935 3.63620351,13.339097 6.9527176,13.339097 C10.2692317,13.339097 12.9054352,10.7028935 12.9054352,7.38637936 C12.9054352,4.06986527 10.2692317,1.43366176 6.9527176,1.43366176 L6.9527176,1.43366176 Z M5.67713526,8.23676759 C4.48659174,8.23676759 3.55116469,7.30134054 3.55116469,6.11079702 C3.55116469,4.9202535 4.48659174,3.98482644 5.67713526,3.98482644 C6.86767878,3.98482644 7.80310583,4.9202535 7.80310583,6.11079702 C7.80310583,7.30134054 6.86767878,8.23676759 5.67713526,8.23676759 L5.67713526,8.23676759 Z" id="Shape" fill="#485369" transform="translate(6.952718, 7.386379) rotate(40.000000) translate(-6.952718, -7.386379) "></path>
        </g>
    </g>
</svg>