<?xml version="1.0" encoding="UTF-8" standalone="no"?>
<svg width="166px" height="32px" viewBox="0 0 166 32" version="1.1" xmlns="http://www.w3.org/2000/svg" xmlns:xlink="http://www.w3.org/1999/xlink">
    <!-- Generator: Sketch 39.1 (31720) - http://www.bohemiancoding.com/sketch -->
    <title>SG Logo</title>
    <desc>Created with Sketch.</desc>
    <defs></defs>
    <g id="Welcome" stroke="none" stroke-width="1" fill="none" fill-rule="evenodd">
        <g id="Namespaces" transform="translate(-22.000000, -22.000000)">
            <g id="SG-Logo" transform="translate(18.000000, 18.000000)">
                <path d="M46.6219027,25.6079102 C47.006,25.6603193 47.4202163,25.7052407 47.8645641,25.7426758 C48.2486613,25.7801109 48.687354,25.8100585 49.1806554,25.8325195 C49.6739568,25.8549806 50.1954927,25.8662109 50.745279,25.8662109 C51.4758169,25.8662109 52.0557197,25.8194178 52.4850049,25.7258301 C52.91429,25.6322424 53.2418974,25.4937346 53.467837,25.3103027 C53.6937766,25.1268708 53.8387523,24.900392 53.9027685,24.6308594 C53.9667847,24.3613268 53.9987923,24.0506202 53.9987923,23.6987305 C53.9987923,23.4217109 53.9856127,23.1690278 53.9592531,22.9406738 C53.9328935,22.7123198 53.870761,22.5083017 53.7728539,22.3286133 C53.6749467,22.1489249 53.5356194,21.9935716 53.3548678,21.8625488 C53.1741161,21.731526 52.9255864,21.6248377 52.609271,21.5424805 L49.3218669,20.6889648 C48.8022059,20.5541985 48.3616304,20.3726411 48.0001271,20.1442871 C47.6386238,19.9159331 47.3467896,19.6258156 47.1246157,19.2739258 C46.9024418,18.922036 46.7405209,18.4971542 46.6388481,17.9992676 C46.5371753,17.501381 46.4863397,16.9155307 46.4863397,16.2416992 C46.4863397,15.4480755 46.606839,14.761152 46.8478412,14.1809082 C47.0888434,13.6006644 47.4296304,13.1233743 47.8702125,12.7490234 C48.3107947,12.3746726 48.8436275,12.0976571 49.4687269,11.9179688 C50.0938263,11.7382804 50.7904628,11.6484375 51.5586573,11.6484375 C52.1988194,11.6484375 52.7843706,11.6840003 53.3153286,11.755127 C53.8462865,11.8262536 54.3038073,11.9029944 54.6879045,11.9853516 C55.1397836,12.0826828 55.5502343,12.1912429 55.9192689,12.3110352 L55.9192689,14.3886719 C55.5803596,14.3437498 55.2226273,14.3025718 54.8460614,14.2651367 C54.5222147,14.2277016 54.158834,14.1958823 53.7559085,14.1696777 C53.352983,14.1434732 52.9368838,14.1303711 52.5075987,14.1303711 C51.8373114,14.1303711 51.2875334,14.1528318 50.8582482,14.1977539 C50.428963,14.242676 50.0900588,14.3362623 49.8415253,14.4785156 C49.5929918,14.6207689 49.4197741,14.8229154 49.3218669,15.0849609 C49.2239598,15.3470065 49.1750069,15.6951476 49.1750069,16.1293945 C49.1750069,16.3689791 49.1881865,16.5823558 49.2145462,16.7695312 C49.2409058,16.9567067 49.3011554,17.1214186 49.3952969,17.2636719 C49.4894384,17.4059252 49.6250001,17.5294591 49.8019861,17.6342773 C49.978972,17.7390956 50.2180878,17.8364253 50.5193406,17.9262695 L53.5808062,18.8022461 C53.9724348,18.9145513 54.320753,19.0324701 54.6257714,19.1560059 C54.9307898,19.2795416 55.1962648,19.4255363 55.4222044,19.5939941 C55.6481439,19.762452 55.8420725,19.9589833 56.0039958,20.1835938 C56.1659192,20.4082042 56.2958325,20.6758611 56.3937396,20.9865723 C56.4916467,21.2972835 56.5631932,21.66227 56.6083811,22.081543 C56.653569,22.5008159 56.6761626,22.9837212 56.6761626,23.5302734 C56.6761626,24.3837933 56.6027334,25.1156382 56.4558727,25.7258301 C56.309012,26.3360219 56.0322402,26.8339011 55.625549,27.2194824 C55.2188578,27.6050638 54.6596657,27.8895661 53.9479562,28.072998 C53.2362466,28.25643 52.3155567,28.3481445 51.1858589,28.3481445 C50.312226,28.3481445 49.5873474,28.3088383 49.0112016,28.2302246 C48.4350557,28.1516109 47.9662382,28.0636398 47.6047349,27.9663086 C47.1905124,27.8540033 46.8629049,27.726726 46.6219027,27.5844727 L46.6219027,25.6079102 Z M58.5480134,11.9741211 L61.2366806,11.9741211 L61.2366806,22.6879883 C61.2366806,23.3243847 61.2931647,23.848468 61.4061344,24.2602539 C61.5191042,24.6720398 61.7055015,24.9958484 61.965332,25.2316895 C62.2251625,25.4675305 62.562184,25.6322424 62.9764065,25.7258301 C63.390629,25.8194178 63.8989854,25.8662109 64.5014908,25.8662109 C65.0437458,25.8662109 65.5163289,25.8194178 65.9192545,25.7258301 C66.32218,25.6322424 66.6592014,25.4675305 66.9303289,25.2316895 C67.2014564,24.9958484 67.4029161,24.6720398 67.5347142,24.2602539 C67.6665123,23.848468 67.7324103,23.3243847 67.7324103,22.6879883 L67.7324103,11.9741211 L70.4210776,11.9741211 L70.4210776,22.8452148 C70.4210776,23.7810919 70.3137579,24.593421 70.0991153,25.2822266 C69.8844727,25.9710321 69.5399201,26.5419085 69.065447,26.994873 C68.590974,27.4478376 67.9790635,27.78662 67.2296973,28.0112305 C66.4803311,28.235841 65.5709381,28.3481445 64.5014908,28.3481445 C63.4320436,28.3481445 62.5207678,28.2377127 61.7676359,28.0168457 C61.0145041,27.7959787 60.398828,27.4609397 59.9205893,27.0117188 C59.4423506,26.5624978 59.0940323,25.9953648 58.8756241,25.3103027 C58.6572158,24.6252407 58.5480134,23.8185268 58.5480134,22.8901367 L58.5480134,11.9741211 Z M73.2192758,11.9741211 L79.6133333,11.9741211 C79.9597739,11.9741211 80.309975,12.0003253 80.6639469,12.0527344 C81.0179189,12.1051435 81.3568231,12.204345 81.6806698,12.3503418 C82.0045165,12.4963386 82.3057648,12.6928699 82.5844235,12.9399414 C82.8630823,13.187013 83.1078465,13.5033347 83.3187234,13.888916 C83.5296003,14.2744974 83.6934041,14.7405572 83.8101395,15.2871094 C83.9268749,15.8336616 83.9852418,16.4737919 83.9852418,17.2075195 C83.9852418,17.9412472 83.9212265,18.5795057 83.7931941,19.1223145 C83.6651617,19.6651232 83.491944,20.1274395 83.2735357,20.5092773 C83.0551275,20.8911152 82.7990665,21.2018217 82.5053451,21.4414062 C82.2116237,21.6809908 81.8990786,21.8700351 81.5677006,22.0085449 C81.2363226,22.1470547 80.8955356,22.240641 80.5453293,22.2893066 C80.1951229,22.3379722 79.8505703,22.3623047 79.511661,22.3623047 L75.9305369,22.3623047 L75.9305369,28 L73.2192758,28 L73.2192758,11.9741211 Z M79.1953472,19.8579102 C79.6020384,19.8579102 79.9315286,19.790528 80.1838278,19.6557617 C80.4361269,19.5209954 80.6357039,19.3338228 80.7825646,19.0942383 C80.9294253,18.8546537 81.0292138,18.5738948 81.081933,18.2519531 C81.1346522,17.9300114 81.1610115,17.5818704 81.1610115,17.2075195 C81.1610115,16.8406557 81.1346522,16.4925147 81.081933,16.1630859 C81.0292138,15.8336572 80.9294253,15.5435397 80.7825646,15.2927246 C80.6357039,15.0419096 80.4361269,14.8435066 80.1838278,14.6975098 C79.9315286,14.5515129 79.6020384,14.4785156 79.1953472,14.4785156 L75.9305369,14.4785156 L75.9305369,19.8579102 L79.1953472,19.8579102 Z M85.6876387,11.9741211 L95.3803971,11.9741211 L95.3803971,14.4785156 L88.3988998,14.4785156 L88.3988998,18.6899414 L94.250705,18.6899414 L94.250705,21.1494141 L88.3988998,21.1494141 L88.3988998,25.4956055 L95.5724448,25.4956055 L95.5724448,28 L85.6876387,28 L85.6876387,11.9741211 Z M97.4104047,11.9741211 L103.40907,11.9741211 C103.838355,11.9741211 104.25822,12.002197 104.668677,12.0583496 C105.079133,12.1145022 105.466991,12.2137037 105.832259,12.355957 C106.197528,12.4982103 106.530784,12.6909981 106.832037,12.9343262 C107.13329,13.1776542 107.394999,13.4902325 107.617173,13.8720703 C107.839347,14.2539082 108.010682,14.7106093 108.131183,15.2421875 C108.251684,15.7737657 108.311934,16.3989222 108.311934,17.1176758 C108.311934,17.5968448 108.272395,18.0254701 108.193316,18.4035645 C108.114237,18.7816588 108.0088,19.1166978 107.877002,19.4086914 C107.745204,19.7006851 107.59458,19.9552398 107.425125,20.1723633 C107.255671,20.3894868 107.084336,20.5766594 106.911115,20.7338867 C106.496893,21.0932635 106.029958,21.3440748 105.510297,21.4863281 L105.510297,21.5087891 L108.910671,28 L105.815314,28 L102.799036,22.1152344 L100.121666,22.1152344 L100.121666,28 L97.4104047,28 L97.4104047,11.9741211 Z M103.386476,19.5771484 C104.802364,19.5771484 105.510297,18.7049241 105.510297,16.9604492 C105.510297,16.5037412 105.459462,16.1162939 105.357789,15.7980957 C105.256116,15.4798975 105.109258,15.223471 104.917209,15.0288086 C104.72516,14.8341462 104.493576,14.6937667 104.222448,14.607666 C103.951321,14.5215653 103.650073,14.4785156 103.318695,14.4785156 L100.121666,14.4785156 L100.121666,19.5771484 L103.386476,19.5771484 Z M109.912658,19.8354492 C109.912658,18.3006108 110.080228,17.0109916 110.415371,15.9665527 C110.750515,14.9221139 111.228747,14.0798372 111.85008,13.4396973 C112.471414,12.7995573 113.218886,12.3409845 114.092519,12.0639648 C114.966152,11.7869452 115.945209,11.6484375 117.029719,11.6484375 C117.760257,11.6484375 118.413589,11.685872 118.989735,11.7607422 C119.56588,11.8356124 120.061057,11.9179683 120.47528,12.0078125 C120.949753,12.1126307 121.375266,12.2286777 121.751832,12.355957 L121.751832,14.3886719 C121.345141,14.3437498 120.908331,14.3063153 120.441389,14.2763672 C120.042229,14.2464191 119.586591,14.2183432 119.074461,14.1921387 C118.562332,14.1659341 118.035147,14.152832 117.492892,14.152832 C116.551478,14.152832 115.771998,14.2520335 115.15443,14.4504395 C114.536862,14.6488454 114.047333,14.972654 113.68583,15.421875 C113.324327,15.871096 113.070149,16.4569463 112.923288,17.1794434 C112.776427,17.9019405 112.702998,18.7872669 112.702998,19.8354492 C112.702998,20.9060926 112.780193,21.8213666 112.934585,22.5812988 C113.088977,23.341231 113.343155,23.9645158 113.697127,24.4511719 C114.051099,24.937828 114.518034,25.2953276 115.097945,25.5236816 C115.677857,25.7520356 116.393321,25.8662109 117.24436,25.8662109 C117.613395,25.8662109 117.948533,25.8549806 118.249786,25.8325195 C118.551039,25.8100585 118.8071,25.7801109 119.017977,25.7426758 C119.26651,25.7052407 119.484915,25.6603193 119.673198,25.6079102 L119.673198,21.4863281 L116.735999,21.4863281 L116.735999,19.0268555 L122.361866,19.0268555 L122.361866,27.2363281 C121.917518,27.4459646 121.431755,27.6331372 120.904563,27.7978516 C120.452684,27.9401049 119.919851,28.0673823 119.306048,28.1796875 C118.692246,28.2919927 118.027617,28.3481445 117.312142,28.3481445 C116.144787,28.3481445 115.103598,28.2171237 114.188543,27.9550781 C113.273488,27.6930325 112.499656,27.2363314 111.867026,26.5849609 C111.234395,25.9335905 110.750515,25.0613661 110.415371,23.9682617 C110.080228,22.8751573 109.912658,21.4975669 109.912658,19.8354492 L109.912658,19.8354492 Z M124.662999,11.9741211 L127.37426,11.9741211 L127.37426,28 L124.662999,28 L124.662999,11.9741211 Z M133.561535,11.9741211 L137.153956,11.9741211 L142.429618,28 L139.435934,28 L138.080303,23.6538086 L132.59,23.6538086 L131.290854,28 L128.33106,28 L133.561535,11.9741211 Z M137.334707,21.2392578 L135.346449,14.4560547 L135.301261,14.4560547 L133.313003,21.2392578 L137.334707,21.2392578 Z M143.386418,11.9741211 L147.882593,11.9741211 L153.756992,25.4956055 L153.813477,25.4956055 C153.805945,25.2260729 153.798414,24.9528009 153.790883,24.6757812 C153.783351,24.4361967 153.779586,24.1778985 153.779586,23.9008789 L153.779586,23.1035156 L153.779586,11.9741211 L156.456956,11.9741211 L156.456956,28 L152.062454,28 L147.091808,16.7246094 C146.956245,16.4101547 146.828214,16.1181654 146.707713,15.8486328 C146.587212,15.5791002 146.485541,15.3432627 146.402696,15.1411133 C146.297258,14.9015287 146.203118,14.6806651 146.120273,14.4785156 L146.075086,14.4785156 L146.075086,28 L143.386418,28 L143.386418,11.9741211 Z M162.226245,14.4560547 L157.391162,14.4560547 L157.391162,11.9741211 L169.795182,11.9741211 L169.795182,14.4560547 L164.914912,14.4560547 L164.914912,28 L162.226245,28 L162.226245,14.4560547 Z" id="SUPERGIANT-Copy-7" fill="#485369"></path>
                <g id="Group-2">
                    <g id="Group">
                        <path d="M15.3196574,33.3563584 C21.3325029,33.3563584 26.2068773,28.2655947 26.2068773,21.9858195 C26.2068773,15.7060443 21.3325029,10.6152806 15.3196574,10.6152806 C9.30681181,10.6152806 4.43243739,15.7060443 4.43243739,21.9858195 C4.43243739,28.2655947 9.30681181,33.3563584 15.3196574,33.3563584 Z" id="Oval-1-Copy-21" fill="#8199A7" transform="translate(15.319657, 21.985820) rotate(-330.000000) translate(-15.319657, -21.985820) "></path>
                        <path d="M17.6594708,26.873574 C23.6723163,26.873574 28.5466908,21.7828104 28.5466908,15.5030351 C28.5466908,9.22325992 23.6723163,4.13249626 17.6594708,4.13249626 C11.6466252,4.13249626 6.7722508,9.22325992 6.7722508,15.5030351 C6.7722508,21.7828104 11.6466252,26.873574 17.6594708,26.873574 Z" id="Oval-1-Copy-22" fill="#8199A7" transform="translate(17.659471, 15.503035) rotate(-330.000000) translate(-17.659471, -15.503035) "></path>
                        <path d="M24.678911,33.3563584 C30.6917566,33.3563584 35.566131,28.2655947 35.566131,21.9858195 C35.566131,15.7060443 30.6917566,10.6152806 24.678911,10.6152806 C18.6660655,10.6152806 13.791691,15.7060443 13.791691,21.9858195 C13.791691,28.2655947 18.6660655,33.3563584 24.678911,33.3563584 Z" id="Oval-1-Copy-23" fill="#8199A7" transform="translate(24.678911, 21.985820) rotate(-330.000000) translate(-24.678911, -21.985820) "></path>
                        <path d="M23.8989732,27.6839221 C29.9118188,27.6839221 34.7861932,22.5931584 34.7861932,16.3133832 C34.7861932,10.033608 29.9118188,4.94284431 23.8989732,4.94284431 C17.8861277,4.94284431 13.0117532,10.033608 13.0117532,16.3133832 C13.0117532,22.5931584 17.8861277,27.6839221 23.8989732,27.6839221 Z" id="Oval-1-Copy-24" fill="#8199A7" transform="translate(23.898973, 16.313383) rotate(-330.000000) translate(-23.898973, -16.313383) "></path>
                        <path d="M20.779222,35.7874026 C26.7920676,35.7874026 31.666442,30.6966389 31.666442,24.4168637 C31.666442,18.1370885 26.7920676,13.0463248 20.779222,13.0463248 C14.7663764,13.0463248 9.89200202,18.1370885 9.89200202,24.4168637 C9.89200202,30.6966389 14.7663764,35.7874026 20.779222,35.7874026 Z" id="Oval-1-Copy-25" fill="#9EB2BE" transform="translate(20.779222, 24.416864) rotate(-330.000000) translate(-20.779222, -24.416864) "></path>
                        <path d="M16.879533,29.3046182 C22.8923785,29.3046182 27.766753,24.2138545 27.766753,17.9340793 C27.766753,11.6543041 22.8923785,6.56354041 16.879533,6.56354041 C10.8666874,6.56354041 5.992313,11.6543041 5.992313,17.9340793 C5.992313,24.2138545 10.8666874,29.3046182 16.879533,29.3046182 Z" id="Oval-1-Copy-26" fill="#9EB2BE" transform="translate(16.879533, 17.934079) rotate(-330.000000) translate(-16.879533, -17.934079) "></path>
                        <path d="M23.1190354,29.3046182 C29.131881,29.3046182 34.0062554,24.2138545 34.0062554,17.9340793 C34.0062554,11.6543041 29.131881,6.56354041 23.1190354,6.56354041 C17.1061898,6.56354041 12.2318154,11.6543041 12.2318154,17.9340793 C12.2318154,24.2138545 17.1061898,29.3046182 23.1190354,29.3046182 Z" id="Oval-1-Copy-27" fill="#9EB2BE" transform="translate(23.119035, 17.934079) rotate(-330.000000) translate(-23.119035, -17.934079) "></path>
                        <path d="M22.3390976,32.5460104 C28.3519432,32.5460104 33.2263176,27.4552467 33.2263176,21.1754715 C33.2263176,14.8956963 28.3519432,9.8049326 22.3390976,9.8049326 C16.326252,9.8049326 11.4518776,14.8956963 11.4518776,21.1754715 C11.4518776,27.4552467 16.326252,32.5460104 22.3390976,32.5460104 Z" id="Oval-1-Copy-28" fill="#D7E4EA" transform="translate(22.339098, 21.175471) rotate(-330.000000) translate(-22.339098, -21.175471) "></path>
                        <path d="M18.4394086,32.5460104 C24.4522541,32.5460104 29.3266286,27.4552467 29.3266286,21.1754715 C29.3266286,14.8956963 24.4522541,9.8049326 18.4394086,9.8049326 C12.426563,9.8049326 7.55218861,14.8956963 7.55218861,21.1754715 C7.55218861,27.4552467 12.426563,32.5460104 18.4394086,32.5460104 Z" id="Oval-1-Copy-29" fill="#D7E4EA" transform="translate(18.439409, 21.175471) rotate(-330.000000) translate(-18.439409, -21.175471) "></path>
                        <path d="M19.9992842,27.6839221 C26.0121298,27.6839221 30.8865042,22.5931584 30.8865042,16.3133832 C30.8865042,10.033608 26.0121298,4.94284431 19.9992842,4.94284431 C13.9864386,4.94284431 9.11206421,10.033608 9.11206421,16.3133832 C9.11206421,22.5931584 13.9864386,27.6839221 19.9992842,27.6839221 Z" id="Oval-1-Copy-30" fill="#D7E4EA" transform="translate(19.999284, 16.313383) rotate(-330.000000) translate(-19.999284, -16.313383) "></path>
                        <path d="M19.9992842,30.9253143 C26.0121298,30.9253143 30.8865042,25.8345506 30.8865042,19.5547754 C30.8865042,13.2750002 26.0121298,8.1842365 19.9992842,8.1842365 C13.9864386,8.1842365 9.11206421,13.2750002 9.11206421,19.5547754 C9.11206421,25.8345506 13.9864386,30.9253143 19.9992842,30.9253143 Z" id="Oval-1-Copy-31" fill="#FFFFFF" transform="translate(19.999284, 19.554775) rotate(-330.000000) translate(-19.999284, -19.554775) "></path>
                    </g>
                </g>
            </g>
        </g>
    </g>
</svg>